<?xml version="1.0" standalone="no"?><!DOCTYPE svg PUBLIC "-//W3C//DTD SVG 1.1//EN" "http://www.w3.org/Graphics/SVG/1.1/DTD/svg11.dtd"><svg width="100%" height="100%" viewBox="0 0 867 228" version="1.1" xmlns="http://www.w3.org/2000/svg" xmlns:xlink="http://www.w3.org/1999/xlink" xml:space="preserve" style="fill-rule:evenodd;clip-rule:evenodd;stroke-linejoin:round;stroke-miterlimit:1.41421;"><g><g><path d="M15.139,210.837c2.752,-5.701 16.514,-34.799 18.874,-40.107l60.75,-2.359c1.77,2.949 20.251,35.978 23.396,42.27l15.925,-9.634c-11.599,-17.498 -54.066,-92.797 -69.204,-116.586l-0.394,0c-3.932,6.488 -55.049,101.054 -64.486,117.766l15.139,8.65ZM40.697,158.344c1.573,-2.752 21.037,-42.27 23.593,-46.202c1.769,2.752 22.413,40.5 24.379,44.236l-47.972,1.966Z" style="fill:#0e0b54;fill-rule:nonzero;"/><path d="M179.893,103.098c33.423,0.197 39.518,10.223 39.518,18.088c0,16.711 -17.891,25.755 -26.738,30.277c5.308,7.078 45.809,56.622 47.775,58.981l13.565,-11.993c-5.111,-4.915 -36.765,-39.517 -41.287,-45.612c14.746,-8.651 25.362,-20.447 25.362,-34.209c0,-14.549 -13.762,-24.183 -37.355,-26.935c-14.942,-1.769 -30.473,-1.376 -38.927,-1.376c0.59,3.145 0.983,37.748 0.983,42.86l0,13.565c0,3.539 0.196,56.622 -0.393,60.555l18.48,0c-0.393,-2.556 -0.983,-44.826 -0.983,-51.118l0,-53.083Z" style="fill:#0e0b54;fill-rule:nonzero;"/><path d="M324.398,207.299c-0.393,-3.343 -2.163,-43.057 -2.163,-77.069l0,-25.952c14.352,0 47.382,0.786 47.775,1.573l0,-15.925c-5.701,1.376 -44.629,1.966 -47.971,1.966l-15.729,0c-1.966,0 -44.236,-0.59 -49.348,-1.966l0,15.925c2.556,-0.787 27.918,-1.573 48.169,-1.573l0,23.396c0,26.541 -0.197,75.299 -1.18,79.625l20.447,0Z" style="fill:#0e0b54;fill-rule:nonzero;"/><path d="M578.368,118.63c0,-15.335 0.59,-23.2 0.786,-27.525l-17.694,0c0,3.932 -0.197,16.122 -0.197,23.789l0,9.044c0,40.501 3.539,53.673 11.797,66.059c12.582,18.678 31.26,20.054 40.893,20.054c19.071,0 31.654,-5.702 42.27,-17.891c13.37,-15.532 15.729,-35.782 15.729,-67.829l0,-7.864c0,-13.172 -0.197,-24.182 -0.197,-27.918l-17.891,0c0.197,6.292 0.983,16.122 0.983,27.722l0,5.701c0,26.345 -0.196,46.399 -8.454,58.588c-5.898,8.848 -14.745,15.925 -30.08,15.925c-12.78,0 -22.806,-4.915 -29.688,-16.121c-6.684,-11.01 -8.257,-23.396 -8.257,-50.528l0,-11.206Z" style="fill:#0e0b54;fill-rule:nonzero;"/><path d="M708.717,211.624c1.769,-6.488 23.592,-77.462 26.738,-87.882c7.864,15.138 28.704,54.262 38.731,72.94l0.393,0c7.668,-12.19 38.732,-65.076 44.433,-74.317c2.359,6.488 26.738,76.676 30.867,89.259l16.318,-6.095c-7.274,-17.694 -38.141,-101.055 -43.449,-114.62l-0.59,0c-3.146,5.111 -39.911,68.418 -45.612,77.855c-5.309,-9.634 -37.552,-70.581 -42.86,-81.198l-0.787,0c-0.983,4.129 -37.355,111.868 -40.304,118.946l16.122,5.112Z" style="fill:#0e0b54;fill-rule:nonzero;"/></g><path d="M505.76,61.767c-0.521,12.466 -1.085,41.281 -1.085,65.02l0,26.496c0,24.48 0.864,68.256 1.152,74.016l-27.072,0c0.576,-10.656 0.864,-67.968 0.864,-74.304l0,-26.496c0,-2.004 -0.186,-16.09 -0.443,-31.194c13.118,-6.72 22.983,-18.903 26.584,-33.538Z" style="fill:#0e0b54;"/><path d="M405.895,62.4c3.731,14.368 13.516,26.307 26.465,32.926c-0.158,10.303 -0.261,21.343 -0.261,31.461l0,26.496c0,24.48 0.864,68.256 1.152,74.016l-27.072,0c0.576,-10.656 0.864,-67.968 0.864,-74.304l0,-26.496c0,-3.633 -0.611,-46.972 -1.148,-64.099Z" style="fill:#0e0b54;"/></g><g><path d="M480.401,6.557c-23.391,-13.505 -53.346,-5.478 -66.85,17.913c-13.505,23.391 -5.479,53.345 17.912,66.85c-1.308,-13.94 1.994,-32.816 11.755,-49.722c9.761,-16.906 24.456,-29.203 37.183,-35.041Z" style="fill:#0079ff;"/><path d="M504.869,48.939c0,-27.009 -21.928,-48.938 -48.938,-48.938c-27.009,0 -48.937,21.929 -48.937,48.938c11.418,-8.103 29.416,-14.681 48.937,-14.681c19.522,0 37.519,6.578 48.938,14.681Z" style="fill:#00a1ff;"/><path d="M480.401,91.32c23.391,-13.505 31.417,-43.459 17.913,-66.85c-13.505,-23.391 -43.46,-31.418 -66.851,-17.913c12.727,5.838 27.423,18.135 37.184,35.041c9.76,16.906 13.062,35.782 11.754,49.722Z" style="fill:#2f00ff;"/></g></svg>