<?xml version="1.0" standalone="no"?><!DOCTYPE svg PUBLIC "-//W3C//DTD SVG 1.1//EN" "http://www.w3.org/Graphics/SVG/1.1/DTD/svg11.dtd"><svg width="100%" height="100%" viewBox="0 0 867 340" version="1.1" xmlns="http://www.w3.org/2000/svg" xmlns:xlink="http://www.w3.org/1999/xlink" xml:space="preserve" style="fill-rule:evenodd;clip-rule:evenodd;stroke-linejoin:round;stroke-miterlimit:1.41421;"><g><g><path d="M15.139,210.837c2.752,-5.701 16.514,-34.799 18.874,-40.107l60.75,-2.359c1.77,2.949 20.251,35.978 23.396,42.27l15.925,-9.634c-11.599,-17.498 -54.066,-92.797 -69.204,-116.586l-0.394,0c-3.932,6.488 -55.049,101.054 -64.486,117.766l15.139,8.65ZM40.697,158.344c1.573,-2.752 21.037,-42.27 23.593,-46.202c1.769,2.752 22.413,40.5 24.379,44.236l-47.972,1.966Z" style="fill:#0e0b54;fill-rule:nonzero;"/><path d="M179.893,103.098c33.423,0.197 39.518,10.223 39.518,18.088c0,16.711 -17.891,25.755 -26.738,30.277c5.308,7.078 45.809,56.622 47.775,58.981l13.565,-11.993c-5.111,-4.915 -36.765,-39.517 -41.287,-45.612c14.746,-8.651 25.362,-20.447 25.362,-34.209c0,-14.549 -13.762,-24.183 -37.355,-26.935c-14.942,-1.769 -30.473,-1.376 -38.927,-1.376c0.59,3.145 0.983,37.748 0.983,42.86l0,13.565c0,3.539 0.196,56.622 -0.393,60.555l18.48,0c-0.393,-2.556 -0.983,-44.826 -0.983,-51.118l0,-53.083Z" style="fill:#0e0b54;fill-rule:nonzero;"/><path d="M324.398,207.299c-0.393,-3.343 -2.163,-43.057 -2.163,-77.069l0,-25.952c14.352,0 47.382,0.786 47.775,1.573l0,-15.925c-5.701,1.376 -44.629,1.966 -47.971,1.966l-15.729,0c-1.966,0 -44.236,-0.59 -49.348,-1.966l0,15.925c2.556,-0.787 27.918,-1.573 48.169,-1.573l0,23.396c0,26.541 -0.197,75.299 -1.18,79.625l20.447,0Z" style="fill:#0e0b54;fill-rule:nonzero;"/><path d="M578.368,118.63c0,-15.335 0.59,-23.2 0.786,-27.525l-17.694,0c0,3.932 -0.197,16.122 -0.197,23.789l0,9.044c0,40.501 3.539,53.673 11.797,66.059c12.582,18.678 31.26,20.054 40.893,20.054c19.071,0 31.654,-5.702 42.27,-17.891c13.37,-15.532 15.729,-35.782 15.729,-67.829l0,-7.864c0,-13.172 -0.197,-24.182 -0.197,-27.918l-17.891,0c0.197,6.292 0.983,16.122 0.983,27.722l0,5.701c0,26.345 -0.196,46.399 -8.454,58.588c-5.898,8.848 -14.745,15.925 -30.08,15.925c-12.78,0 -22.806,-4.915 -29.688,-16.121c-6.684,-11.01 -8.257,-23.396 -8.257,-50.528l0,-11.206Z" style="fill:#0e0b54;fill-rule:nonzero;"/><path d="M708.717,211.624c1.769,-6.488 23.592,-77.462 26.738,-87.882c7.864,15.138 28.704,54.262 38.731,72.94l0.393,0c7.668,-12.19 38.732,-65.076 44.433,-74.317c2.359,6.488 26.738,76.676 30.867,89.259l16.318,-6.095c-7.274,-17.694 -38.141,-101.055 -43.449,-114.62l-0.59,0c-3.146,5.111 -39.911,68.418 -45.612,77.855c-5.309,-9.634 -37.552,-70.581 -42.86,-81.198l-0.787,0c-0.983,4.129 -37.355,111.868 -40.304,118.946l16.122,5.112Z" style="fill:#0e0b54;fill-rule:nonzero;"/></g><path d="M505.76,61.767c-0.521,12.466 -1.085,41.281 -1.085,65.02l0,26.496c0,24.48 0.864,68.256 1.152,74.016l-27.072,0c0.576,-10.656 0.864,-67.968 0.864,-74.304l0,-26.496c0,-2.004 -0.186,-16.09 -0.443,-31.194c13.118,-6.72 22.983,-18.903 26.584,-33.538Z" style="fill:#0e0b54;"/><path d="M405.895,62.4c3.731,14.368 13.516,26.307 26.465,32.926c-0.158,10.303 -0.261,21.343 -0.261,31.461l0,26.496c0,24.48 0.864,68.256 1.152,74.016l-27.072,0c0.576,-10.656 0.864,-67.968 0.864,-74.304l0,-26.496c0,-3.633 -0.611,-46.972 -1.148,-64.099Z" style="fill:#0e0b54;"/></g><g><path d="M71.545,292.652c0,1.824 0,30.816 -0.48,36.096l0.768,0c23.04,-0.096 37.536,-11.136 37.536,-22.56c0,-8.64 -8.448,-13.92 -15.072,-14.976l0,-0.192c10.176,-4.704 12.096,-11.328 12.096,-14.976c0,-5.376 -2.4,-12.48 -21.792,-14.496c-3.744,-0.384 -8.448,-0.576 -13.536,-0.576c0.288,2.016 0.48,18.144 0.48,21.024l0,10.656ZM79.801,295.916c12.096,-0.576 19.968,4.128 19.968,10.848c0,9.024 -9.504,14.016 -19.968,15.072l0,-25.92ZM79.801,267.116c6.624,0.192 17.568,1.536 17.568,10.176c0,6.432 -7.008,12.864 -17.568,13.152l0,-23.328Z" style="fill:#00499b;fill-rule:nonzero;"/><path d="M139.609,294.668c0,-9.792 0.288,-22.176 0.48,-23.616l-9.312,0c0.192,1.92 0.48,22.08 0.48,23.52l0,8.832c0,2.112 -0.096,21.216 -0.288,24.768l9.024,0c-0.096,-1.92 -0.384,-16.512 -0.384,-24.672l0,-8.832Z" style="fill:#00499b;fill-rule:nonzero;"/><path d="M165.049,302.348c0,2.208 -0.192,22.464 -0.576,26.208c22.944,0 52.608,-9.504 52.608,-35.616c0,-5.664 -2.496,-19.2 -31.008,-21.408c-7.584,-0.576 -16.512,-0.48 -21.504,-0.48c0.384,2.304 0.48,19.488 0.48,21.216l0,10.08ZM173.305,277.484c21.984,-0.384 34.944,4.8 34.944,17.376c0,11.904 -11.52,25.056 -34.944,26.592l0,-43.968Z" style="fill:#00499b;fill-rule:nonzero;"/><path d="M267.769,284.876c0,-7.488 0.288,-11.328 0.384,-13.44l-8.64,0c0,1.92 -0.096,7.872 -0.096,11.616l0,4.416c0,19.776 1.728,26.208 5.76,32.256c6.144,9.12 15.264,9.792 19.968,9.792c9.312,0 15.456,-2.784 20.64,-8.736c6.528,-7.584 7.68,-17.472 7.68,-33.12l0,-3.84c0,-6.432 -0.096,-11.808 -0.096,-13.632l-8.736,0c0.096,3.072 0.48,7.872 0.48,13.536l0,2.784c0,12.864 -0.096,22.656 -4.128,28.608c-2.88,4.32 -7.2,7.776 -14.688,7.776c-6.24,0 -11.136,-2.4 -14.496,-7.872c-3.264,-5.376 -4.032,-11.424 -4.032,-24.672l0,-5.472Z" style="fill:#00499b;fill-rule:nonzero;"/><path d="M342.553,328.172c-0.096,-1.728 -0.096,-10.656 -0.096,-12.288l0,-4.608c16.32,-2.88 27.744,-11.808 27.744,-23.52c0,-8.64 -7.2,-13.92 -18.912,-15.744c-5.472,-0.864 -13.632,-0.96 -17.28,-0.96c0,1.248 0.192,17.28 0.192,19.2l0,8.928c0,5.856 -0.192,25.44 -0.384,28.992l8.736,0ZM342.457,277.484c16.992,0.192 18.912,8.256 18.912,11.232c0,9.408 -8.544,14.208 -18.912,16.224l0,-27.456Z" style="fill:#00499b;fill-rule:nonzero;"/><path d="M376.057,337.868l3.84,1.824l11.808,-19.392l-9.408,-4.224l-6.24,21.792Z" style="fill:#00499b;fill-rule:nonzero;"/><path d="M434.329,329.9c1.344,-2.784 8.064,-16.992 9.216,-19.584l29.664,-1.152c0.864,1.44 9.888,17.568 11.424,20.64l7.776,-4.704c-5.664,-8.544 -26.4,-45.312 -33.792,-56.928l-0.192,0c-1.92,3.168 -26.88,49.344 -31.488,57.504l7.392,4.224ZM446.809,304.268c0.768,-1.344 10.272,-20.64 11.52,-22.56c0.864,1.344 10.944,19.776 11.904,21.6l-23.424,0.96Z" style="fill:#00499b;fill-rule:nonzero;"/><path d="M514.777,277.292c16.32,0.096 19.296,4.992 19.296,8.832c0,8.16 -8.736,12.576 -13.056,14.784c2.592,3.456 22.368,27.648 23.328,28.8l6.624,-5.856c-2.496,-2.4 -17.952,-19.296 -20.16,-22.272c7.2,-4.224 12.384,-9.984 12.384,-16.704c0,-7.104 -6.72,-11.808 -18.24,-13.152c-7.296,-0.864 -14.88,-0.672 -19.008,-0.672c0.288,1.536 0.48,18.432 0.48,20.928l0,6.624c0,1.728 0.096,27.648 -0.192,29.568l9.024,0c-0.192,-1.248 -0.48,-21.888 -0.48,-24.96l0,-25.92Z" style="fill:#00499b;fill-rule:nonzero;"/><path d="M585.337,328.172c-0.192,-1.632 -1.056,-21.024 -1.056,-37.632l0,-12.672c7.008,0 23.136,0.384 23.328,0.768l0,-7.776c-2.784,0.672 -21.792,0.96 -23.424,0.96l-7.68,0c-0.96,0 -21.6,-0.288 -24.096,-0.96l0,7.776c1.248,-0.384 13.632,-0.768 23.52,-0.768l0,11.424c0,12.96 -0.096,36.768 -0.576,38.88l9.984,0Z" style="fill:#00499b;fill-rule:nonzero;"/><path d="M644.665,329.9c1.344,-2.784 8.064,-16.992 9.216,-19.584l29.664,-1.152c0.864,1.44 9.888,17.568 11.424,20.64l7.776,-4.704c-5.664,-8.544 -26.4,-45.312 -33.792,-56.928l-0.192,0c-1.92,3.168 -26.88,49.344 -31.488,57.504l7.392,4.224ZM657.145,304.268c0.768,-1.344 10.272,-20.64 11.52,-22.56c0.864,1.344 10.944,19.776 11.904,21.6l-23.424,0.96Z" style="fill:#00499b;fill-rule:nonzero;"/><path d="M725.113,328.172c-0.096,-1.728 -0.096,-10.656 -0.096,-12.288l0,-4.608c16.32,-2.88 27.744,-11.808 27.744,-23.52c0,-8.64 -7.2,-13.92 -18.912,-15.744c-5.472,-0.864 -13.632,-0.96 -17.28,-0.96c0,1.248 0.192,17.28 0.192,19.2l0,8.928c0,5.856 -0.192,25.44 -0.384,28.992l8.736,0ZM725.017,277.484c16.992,0.192 18.912,8.256 18.912,11.232c0,9.408 -8.544,14.208 -18.912,16.224l0,-27.456Z" style="fill:#00499b;fill-rule:nonzero;"/><path d="M778.873,328.172c-0.096,-1.728 -0.096,-10.656 -0.096,-12.288l0,-4.608c16.32,-2.88 27.744,-11.808 27.744,-23.52c0,-8.64 -7.2,-13.92 -18.912,-15.744c-5.472,-0.864 -13.632,-0.96 -17.28,-0.96c0,1.248 0.192,17.28 0.192,19.2l0,8.928c0,5.856 -0.192,25.44 -0.384,28.992l8.736,0ZM778.777,277.484c16.992,0.192 18.912,8.256 18.912,11.232c0,9.408 -8.544,14.208 -18.912,16.224l0,-27.456Z" style="fill:#00499b;fill-rule:nonzero;"/></g><g><path d="M480.401,6.557c-23.391,-13.505 -53.346,-5.478 -66.85,17.913c-13.505,23.391 -5.479,53.345 17.912,66.85c-1.308,-13.94 1.994,-32.816 11.755,-49.722c9.761,-16.906 24.456,-29.203 37.183,-35.041Z" style="fill:#0079ff;"/><path d="M504.869,48.939c0,-27.009 -21.928,-48.938 -48.938,-48.938c-27.009,0 -48.937,21.929 -48.937,48.938c11.418,-8.103 29.416,-14.681 48.937,-14.681c19.522,0 37.519,6.578 48.938,14.681Z" style="fill:#00a1ff;"/><path d="M480.401,91.32c23.391,-13.505 31.417,-43.459 17.913,-66.85c-13.505,-23.391 -43.46,-31.418 -66.851,-17.913c12.727,5.838 27.423,18.135 37.184,35.041c9.76,16.906 13.062,35.782 11.754,49.722Z" style="fill:#2f00ff;"/></g></svg>